# xmcd
# 
# Track frame offsets:
#     150
#     17575
#     37200
#     58447
#     78325
#     100260
#     120470
#     141815
#     149232
#     170770
#     190872
#     212985
#     234107
#     254472
#     277240
#     294600
# 
# Disc length: 4211
# 
# Revision: 0
# Processed by: cddbd v1.5.2PL0 Copyright (c) Steve Scherf et al.
# Submitted via: fre:ac v1.0.17
# 
DISCID=02107110
DTITLE=Monica - miss thang
DYEAR=1994
DGENRE=R&B
TTITLE0=Miss Thang
TTITLE1=Don't Take It Personal (Just One Of Dem Days)
TTITLE2=Like This And Like That
TTITLE3=Get Down
TTITLE4=With You
TTITLE5=Skate
TTITLE6=Angel
TTITLE7=Woman In Me (Interlude)
TTITLE8=Tell Me If You Still Care
TTITLE9=Let's Straighten It Out
TTITLE10=Before You Walk Out OF My Life
TTITLE11=Now I'm Gone
TTITLE12=Why I Love You So Much
TTITLE13=Never Can Say Goodbye
TTITLE14=Don't Take It Personal (Just One Of Dem Days - Remix)
TTITLE15=Forever Always
EXTD=
EXTT0=
EXTT1=
EXTT2=
EXTT3=
EXTT4=
EXTT5=
EXTT6=
EXTT7=
EXTT8=
EXTT9=
EXTT10=
EXTT11=
EXTT12=
EXTT13=
EXTT14=
EXTT15=
PLAYORDER=
